Simulation
nRows=27
nColumns=15
endheader
time  TH_x TH_y TH_z SC_y  SC_z  SC_x  AC_y  AC_z  AC_x  GH_y  GH_z  GH_yy  EL_x  PS_y
2.4010000000000002  0.000000  0.000000  0.000000  -46.908736609317295  16.905401382055743  27.888793077836443  49.580728700043274  -7.613748282290319  -8.23572391562114  18.98694343872431  16.143569910832532  5.065801279873866  11.298058052380943  120.000000
2.4490200000000004  0.000000  0.000000  0.000000  -45.08231874097643  15.568828725643218  25.513511671872482  49.538533061620036  -7.00933413273949  -8.513787595251367  22.12637167745057  13.140790408692608  6.430466580373756  11.60638828739191  120.000000
2.49704  0.000000  0.000000  0.000000  -43.11529644763194  14.067661775052295  23.174372184297532  49.50340744458612  -6.320230880267054  -8.830040777536071  25.01554404789989  10.682239375592339  8.138053721518666  12.154188091575822  120.000000
2.5450600000000003  0.000000  0.000000  0.000000  -41.06786342927932  12.428334408077724  20.883888859204667  49.45199288891456  -5.521187385160776  -9.19644040396944  27.840793235728853  8.8159894807309  9.791623090074191  12.952546696962987  120.000000
2.5930800000000005  0.000000  0.000000  0.000000  -39.016012537050806  10.683543302976876  18.65071822269825  49.35803097156318  -4.585599059202477  -9.624720644805981  31.17108250404852  7.555422949720638  10.622832918807392  13.937043738968685  120.000000
2.6411000000000002  0.000000  0.000000  0.000000  -37.04513527260739  8.878078593128144  16.48607642865954  49.19537284006871  -3.496715185031436  -10.120806117309181  35.77194909124927  6.884908337555898  9.701680669646695  15.001734503797127  120.000000
2.6891200000000004  0.000000  0.000000  0.000000  -35.239952290957234  7.074375818708532  14.406300018786116  48.94050232031914  -2.258458399532622  -10.676857441962019  41.92011897750683  6.77149714200171  6.6445865505934725  16.03752309451979  120.000000
2.7371400000000006  0.000000  0.000000  0.000000  -33.67383665380424  5.337990439979846  12.438961823997642  48.57521871101922  -0.9035238224675636  -11.281295363176623  48.866831690895125  7.171634892093749  2.1627286437728777  16.95646334121246  120.000000
2.7851600000000003  0.000000  0.000000  0.000000  -32.39910755353831  3.740086448040684  10.607843836123955  48.109245147631356  0.513527030473974  -11.89666529829196  55.30146783643295  8.000194666642015  -2.403476846126998  17.701197637784645  120.000000
2.8331800000000005  0.000000  0.000000  0.000000  -31.43933307991446  2.3633231577533  8.911238964259148  47.59185795834387  1.9329200173172385  -12.415157973077308  60.27003218435614  9.093950830885486  -6.02297240356951  18.23469482304136  120.000000
2.8812000000000006  0.000000  0.000000  0.000000  -30.790841509712923  1.2834555255343785  7.341146959447155  47.09933131813147  3.277173881073956  -12.706994218976591  63.460586887562854  10.257058640688777  -8.287886976264792  18.534888037895865  120.000000
2.9292200000000004  0.000000  0.000000  0.000000  -30.39934839253186  0.5436780417393997  5.8874618033771435  46.73250933414411  4.465253702262592  -12.70148915332972  65.02449892207926  11.354911862989804  -9.257895785898548  18.60471411913503  120.000000
2.9772400000000006  0.000000  0.000000  0.000000  -30.174762232472325  0.11000102879372081  4.547232890684652  46.53329645377458  5.46623484978508  -12.411050510603413  65.39693038827795  12.344388944110532  -9.277658063717212  18.484709812539762  120.000000
3.0252600000000003  0.000000  0.000000  0.000000  -30.035017516734182  -0.11726911879652321  3.3234162017717606  46.40920488522669  6.295327621169293  -11.910542380812647  65.06928792373876  13.245799058290375  -8.75029138585447  18.2436606283515  120.000000
3.0732800000000005  0.000000  0.000000  0.000000  -29.90294489589651  -0.2288241557489895  2.198108307673189  46.26482951599811  6.967275946384559  -11.295269672338888  64.388367039889  14.102884262726208  -7.958975843628456  17.947353057663445  120.000000
3.1213000000000006  0.000000  0.000000  0.000000  -29.720686383895483  -0.27654638194657755  1.142971149402113  46.0822471285339  7.486506222619356  -10.655685992053854  63.54410328531582  14.958139250284527  -7.0455339721109995  17.652891061311657  120.000000
3.1693200000000004  0.000000  0.000000  0.000000  -29.461072916078265  -0.2937876454249171  0.13979169208169961  45.846921219714545  7.857317624551797  -10.057695752545913  62.6103538094878  15.829145736895926  -6.0530387965632215  17.395503756356725  120.000000
3.2173400000000005  0.000000  0.000000  0.000000  -29.123185680019958  -0.29982180559157934  -0.8182531034372057  45.54974820035907  8.085303953631215  -9.54037960537393  61.567287727259114  16.715021440273112  -4.954568105494762  17.171473041918745  120.000000
3.2653600000000003  0.000000  0.000000  0.000000  -28.722227012408055  -0.3040606573336565  -1.7303043518970178  45.196225154929074  8.18361425754879  -9.121916932355715  60.35608961762115  17.612327607474988  -3.704203611822389  16.942780015865402  120.000000
3.3133800000000004  0.000000  0.000000  0.000000  -28.281370109591062  -0.3192315070695732  -2.5918079171035417  44.79973307300163  8.172800984233684  -8.799261792049267  58.90061243126029  18.521985417251067  -2.2557094577584857  16.650884512464284  120.000000
3.3614000000000006  0.000000  0.000000  0.000000  -27.827120782355774  -0.3609644007284479  -3.3988933463852087  44.387412470229336  8.080109938880971  -8.555643941072802  57.13049616672874  19.459200883564595  -0.5805281288722798  16.241973430768343  120.000000
3.4094200000000003  0.000000  0.000000  0.000000  -27.3835841634476  -0.4466457434501765  -4.14884757903943  43.99378321354478  7.938801014490408  -8.372900461354268  55.00666494818973  20.45827973552239  1.314232711032469  15.692270299283548  120.000000
3.4574400000000005  0.000000  0.000000  0.000000  -26.973320391088322  -0.5942849581658411  -4.837166589565373  43.65126238690705  7.783640638953922  -8.236786970666122  52.52999722317646  21.568718961227603  3.380332159577178  15.02180479644497  120.000000
3.5054600000000007  0.000000  0.000000  0.000000  -26.617534313473005  -0.8157852064126317  -5.454485261290547  43.38829413059448  7.647784322147882  -8.140577288426055  49.74521302765822  22.850609618535152  5.5295584497968004  14.287826677239064  120.000000
3.5534800000000004  0.000000  0.000000  0.000000  -26.33893003721264  -1.1130769464955208  -5.98275323166045  43.225218156707825  7.5581763335820495  -8.08351472318705  46.738890340802165  24.36508646738325  7.6432113481650585  13.563528209548979  120.000000
3.6015000000000006  0.000000  0.000000  0.000000  -26.160983896897186  -1.4718998862850539  -6.395671779495321  43.17476772015109  7.530832804615227  -8.069759120634892  43.62960599734223  26.162530415665554  9.588687021541014  12.916722444914914  120.000000
3.6495200000000008  0.000000  0.000000  0.000000  -26.107850921444577  -1.8590303847736847  -6.660616770033694  43.241857453458735  7.569003787422462  -8.104007726030884  40.551860393709966  28.274358625942288  11.231944890522477  12.390942880412615  120.000000
